<!-- CANONICAL_BRAND_ASSET: packages/brand/logo-horizontal.svg -->
<svg xmlns="http://www.w3.org/2000/svg" viewBox="0 0 160 220">

  <defs>
    <linearGradient id="b" x1="0%" y1="0%" x2="100%" y2="100%">
      <stop offset="0%" stop-color="#e6f3ff"/>
      <stop offset="50%" stop-color="#4da3ff"/>
      <stop offset="100%" stop-color="#0a4c8a"/>
    </linearGradient>

    <linearGradient id="a" x1="0%" y1="0%" x2="100%" y2="0%">
      <stop offset="0%" stop-color="transparent"/>
      <stop offset="50%" stop-color="#ffffff" stop-opacity="0.9"/>
      <stop offset="100%" stop-color="transparent"/>
      <animateTransform attributeName="gradientTransform"
        type="translate"
        from="-160 0"
        to="160 0"
        dur="3s"
        repeatCount="indefinite"/>
    </linearGradient>

    <mask id="c">
      <path fill="url(#a)" d="M0 0h160v200H0z"/>
    </mask>
  </defs>

  <!-- Background -->
  <rect width="160" height="220" fill="black"/>

  <!-- Metallic Penrose (unchanged geometry) -->
  <path
    d="m111.87 92.505-41-72A1 1 0 0 0 70 20H57a1 1 0 0 0-.87.505l-41 72a1 1 0 0 0 0 .99l6.5 11.414a1 1 0 0 0 .87.506h82a1 1 0 0 0 .87-.506l6.5-11.414a1 1 0 0 0 0-.99M109.28 92H43.72l5.361-9.415H91.5a1 1 0 0 0 .87-1.494L58.72 22h10.698ZM63.5 57.265l13.28 23.32H50.22ZM17.15 93 57 23.021l32.78 57.564h-10.7l-21.21-37.25a1.04 1.04 0 0 0-1.738 0L22.5 102.392Zm86.768 10.415H24.22L57 45.85l5.35 9.394-21.22 37.261A1 1 0 0 0 42 94h67.28Z"
    fill="url(#b)"
    stroke="#052f54"
    transform="matrix(1.3 0 0 1.3 15 5)"
  />

  <!-- Shine overlay -->
  <path
    d="m111.87 92.505-41-72A1 1 0 0 0 70 20H57a1 1 0 0 0-.87.505l-41 72a1 1 0 0 0 0 .99l6.5 11.414a1 1 0 0 0 .87.506h82a1 1 0 0 0 .87-.506l6.5-11.414a1 1 0 0 0 0-.99M109.28 92H43.72l5.361-9.415H91.5a1 1 0 0 0 .87-1.494L58.72 22h10.698ZM63.5 57.265l13.28 23.32H50.22ZM17.15 93 57 23.021l32.78 57.564h-10.7l-21.21-37.25a1.04 1.04 0 0 0-1.738 0L22.5 102.392Zm86.768 10.415H24.22L57 45.85l5.35 9.394-21.22 37.261A1 1 0 0 0 42 94h67.28Z"
    fill="#ffffff"
    mask="url(#c)"
    opacity="0.4"
    transform="matrix(1.3 0 0 1.3 15 5)"
  />

  <!-- Refined Wordmark -->
  <text
    x="80"
    y="208"
    text-anchor="middle"
    font-size="22"
    font-weight="600"
    letter-spacing="3"
    fill="url(#b)"
    font-family="Cinzel, Cormorant Garamond, Playfair Display, serif">
    GOLD SHORE
  </text>

</svg>
