<svg xmlns="http://www.w3.org/2000/svg" viewBox="0 0 440 128" fill="none">
  <defs>
    <linearGradient
      id="penrose-fill"
      x1="20"
      x2="108"
      y1="16"
      y2="108"
      gradientUnits="userSpaceOnUse"
    >
      <stop offset="0" stop-color="#f4f8ff" />
      <stop offset="0.45" stop-color="#86c3ff" />
      <stop offset="1" stop-color="#0d4f8f" />
    </linearGradient>
    <linearGradient
      id="wordmark-fill"
      x1="156"
      x2="412"
      y1="32"
      y2="96"
      gradientUnits="userSpaceOnUse"
    >
      <stop offset="0" stop-color="#eef5ff" />
      <stop offset="1" stop-color="#79b9ff" />
    </linearGradient>
  </defs>
  <path
    d="m111.87 92.5-41-72A1 1 0 0 0 70 20H57a1 1 0 0 0-.87.5l-41 72a1 1 0 0 0 0 1l6.5 11.41a1 1 0 0 0 .87.5h82a1 1 0 0 0 .87-.5l6.5-11.41a1 1 0 0 0 0-1m-2.59-.5H43.72l5.36-9.42H91.5a1 1 0 0 0 .87-1.49L58.72 22h10.7ZM63.5 57.27l13.28 23.31H50.22ZM17.15 93 57 23.02l32.78 57.56h-10.7L57.87 43.34a1.04 1.04 0 0 0-1.74 0L22.5 102.39Zm86.77 10.41h-79.7L57 45.85l5.35 9.39L41.13 92.5A1 1 0 0 0 42 94h67.28Z"
    fill="url(#penrose-fill)"
    stroke="#081426"
    stroke-linejoin="round"
    stroke-width="3.2"
  />
  <text
    x="152"
    y="60"
    fill="url(#wordmark-fill)"
    font-family="Inter, Avenir Next, Segoe UI, sans-serif"
    font-size="34"
    font-weight="600"
    letter-spacing="1.2"
  >
    Gold Shore
  </text>
  <text
    x="154"
    y="87"
    fill="rgba(233, 238, 252, 0.62)"
    font-family="Inter, Avenir Next, Segoe UI, sans-serif"
    font-size="11"
    font-weight="500"
    letter-spacing="5.2"
  >
    STRUCTURED KINETIC SYSTEMS
  </text>
</svg>
