<svg xmlns="http://www.w3.org/2000/svg" viewBox="0 0 160 230">

<defs>

<!-- Metallic gradient -->
<linearGradient id="metal" x1="0%" y1="0%" x2="100%" y2="100%">
<stop offset="0%" stop-color="#e8f4ff"/>
<stop offset="40%" stop-color="#66b3ff"/>
<stop offset="75%" stop-color="#1b6fc2"/>
<stop offset="100%" stop-color="#0a3a6b"/>
</linearGradient>

<!-- Moving shine -->
<linearGradient id="shine" x1="0%" y1="0%" x2="100%" y2="0%">
<stop offset="0%" stop-color="transparent"/>
<stop offset="50%" stop-color="#ffffff" stop-opacity="0.9"/>
<stop offset="100%" stop-color="transparent"/>

<animateTransform
attributeName="gradientTransform"
type="translate"
from="-160 0"
to="160 0"
dur="3.5s"
repeatCount="indefinite"/>

</linearGradient>

<mask id="maskShine">
<rect width="160" height="230" fill="url(#shine)"/>
</mask>

</defs>

<!-- background -->
<rect width="160" height="230" fill="black"/>

<!-- Penrose -->
<path
d="m111.87 92.505-41-72A1 1 0 0 0 70 20H57a1 1 0 0 0-.87.505l-41 72a1 1 0 0 0 0 .99l6.5 11.414a1 1 0 0 0 .87.506h82a1 1 0 0 0 .87-.506l6.5-11.414a1 1 0 0 0 0-.99M109.28 92H43.72l5.361-9.415H91.5a1 1 0 0 0 .87-1.494L58.72 22h10.698ZM63.5 57.265l13.28 23.32H50.22ZM17.15 93 57 23.021l32.78 57.564h-10.7l-21.21-37.25a1.04 1.04 0 0 0-1.738 0L22.5 102.392Zm86.768 10.415H24.22L57 45.85l5.35 9.394-21.22 37.261A1 1 0 0 0 42 94h67.28Z"
fill="url(#metal)"
stroke="#052f54"
stroke-width="1"
transform="matrix(1.3 0 0 1.3 15 5)"
/>

<!-- Shine -->
<path
d="m111.87 92.505-41-72A1 1 0 0 0 70 20H57a1 1 0 0 0-.87.505l-41 72a1 1 0 0 0 0 .99l6.5 11.414a1 1 0 0 0 .87.506h82a1 1 0 0 0 .87-.506l6.5-11.414a1 1 0 0 0 0-.99M109.28 92H43.72l5.361-9.415H91.5a1 1 0 0 0 .87-1.494L58.72 22h10.698ZM63.5 57.265l13.28 23.32H50.22ZM17.15 93 57 23.021l32.78 57.564h-10.7l-21.21-37.25a1.04 1.04 0 0 0-1.738 0L22.5 102.392Zm86.768 10.415H24.22L57 45.85l5.35 9.394-21.22 37.261A1 1 0 0 0 42 94h67.28Z"
fill="#ffffff"
mask="url(#maskShine)"
opacity="0.35"
transform="matrix(1.3 0 0 1.3 15 5)"
/>

<!-- Wordmark -->
<text
x="80"
y="214"
text-anchor="middle"
font-size="20"
font-weight="500"
letter-spacing="5"
fill="url(#metal)"
font-family="Optima, Trajan Pro, Cinzel, serif">

GOLD SHORE

</text>

</svg>
