<svg xmlns="http://www.w3.org/2000/svg" width="1600" height="900" viewBox="0 0 1600 900" fill="none">
  <rect width="1600" height="900" fill="#05070d"/>
  <g fill="#dbeafe" opacity="0.8">
    <circle cx="80" cy="70" r="1.2"/><circle cx="220" cy="190" r="1"/><circle cx="340" cy="120" r="1.4"/>
    <circle cx="470" cy="260" r="1"/><circle cx="620" cy="80" r="1.3"/><circle cx="760" cy="220" r="1.1"/>
    <circle cx="910" cy="120" r="1.2"/><circle cx="1080" cy="260" r="1"/><circle cx="1220" cy="100" r="1.4"/>
    <circle cx="1380" cy="220" r="1.1"/><circle cx="1510" cy="140" r="1.2"/><circle cx="120" cy="380" r="1.1"/>
    <circle cx="280" cy="500" r="1"/><circle cx="430" cy="400" r="1.4"/><circle cx="590" cy="530" r="1.1"/>
    <circle cx="740" cy="420" r="1"/><circle cx="900" cy="520" r="1.3"/><circle cx="1070" cy="410" r="1.1"/>
    <circle cx="1230" cy="540" r="1.2"/><circle cx="1390" cy="430" r="1"/><circle cx="1530" cy="520" r="1.3"/>
    <circle cx="60" cy="760" r="1"/><circle cx="240" cy="680" r="1.2"/><circle cx="380" cy="820" r="1.1"/>
    <circle cx="530" cy="700" r="1.3"/><circle cx="690" cy="800" r="1"/><circle cx="850" cy="680" r="1.2"/>
    <circle cx="1000" cy="810" r="1.1"/><circle cx="1160" cy="700" r="1.3"/><circle cx="1320" cy="820" r="1"/>
    <circle cx="1470" cy="710" r="1.2"/>
  </g>
</svg>
